# xmcd CD database file
#
# Track frame offsets:
#	150
#	16625
#	34512
#	45987
#	66987
#	84610
#	104637
#	108162
#	126725
#	148052
#	168462
#	183987
#
# Disc length: 2567 seconds
#
# Revision: 0
# Processed by: cddbd v1.5.1PL0 Copyright (c) Steve Scherf et al.
# Submitted via: CDex 1.51
#
DISCID=a10a050c
DTITLE=麻波25 - INVADE
DYEAR=2001
DGENRE=General Hip Hop
TTITLE0=m.U.F.O.
TTITLE1=ハジケロ V10
TTITLE2=FAKE バイバイ
TTITLE3=EYES WIDE OPEN
TTITLE4=ロッキー
TTITLE5=JUMP フロア
TTITLE6=INTERLUDE
TTITLE7=秋冬春夏
TTITLE8=ADVANCED PLAYER
TTITLE9=IN THE FOG
TTITLE10=TALK LOUD FROM FAR EAST
TTITLE11=OUTRO
EXTD=YEAR: 2001
EXTT0=
EXTT1=
EXTT2=
EXTT3=
EXTT4=
EXTT5=
EXTT6=
EXTT7=
EXTT8=
EXTT9=
EXTT10=
EXTT11=
PLAYORDER=
